<?xml version="1.0" encoding="UTF-8"?><svg id="a" xmlns="http://www.w3.org/2000/svg" viewBox="0 0 60 60"><rect x="37.28182" y="12.71823" width="9.99997" height="9.99997" rx=".99997" ry=".99997" transform="translate(-.14443 35.08775) rotate(-45.00062)" fill="#0b132b"/><path d="m40.42279,11.09187c-7.69165-6.15472-15.74719-9.01263-20.68542-7.32635,4.56006,2.66437,10.10925,6.88477,15.84668,12.16504l4.83875-4.83868Z" fill="#0b132b"/><path d="m48.90802,19.57716l-4.83862,4.83881c5.28027,5.73743,9.50073,11.28656,12.16504,15.84674,1.68628-4.93823-1.17163-12.9939-7.32642-20.68555Z" fill="#0b132b"/><path d="m49.55304,14.71284c.37939-.39233.37427-1.01642-.01172-1.40234l-2.85181-2.85181c-.38599-.38593-1.01001-.39111-1.40234-.01172l-.91064.88074,4.29565,4.29572.88086-.91058Z" fill="#0b132b"/><path d="m3.59137,50.77564c-.40161.38849-.40698,1.03076-.01172,1.4259l4.21875,4.21887c.39526.39514,1.03735.38977,1.42603-.0119l31.104-32.15839-4.57861-4.57855L3.59137,50.77564Z" fill="#0b132b"/></svg>