<?xml version="1.0" encoding="UTF-8"?><svg id="a" xmlns="http://www.w3.org/2000/svg" viewBox="0 0 60 60"><path d="m55.44281,25.77058L34.22955,4.55732l-14.65527,17.52887-3.12354,3.12347c-1.56201,1.56213-1.56201,4.09479,0,5.65686l3.85889,3.85895-14.67664,12.98285c-1.35193,1.13031-1.44312,3.17682-.19702,4.42291l2.43274,2.43274c1.24609,1.24603,3.29248,1.15485,4.42285-.19708l12.98291-14.67651,3.85901,3.85901c1.56213,1.56207,4.09485,1.56207,5.65686,0l3.12427-3.12427,17.5282-14.65454Zm-21.01538-16.77277l10.20227,10.20239-9.02466,10.90955,10.90967-9.0246,4.48755,4.48755-14.19165,11.86517-14.24829-14.24841,11.86511-14.19165Z" fill="#0b132b"/></svg>