<?xml version="1.0" encoding="UTF-8"?><svg id="a" xmlns="http://www.w3.org/2000/svg" viewBox="0 0 60 60"><path d="m49.33296,19.58332h-3.16669c-.49066,0-.88849.39783-.88849.88849v1.88928h-12.5v-13.19446h1.88928c.49066,0,.88849-.39777.88849-.88849v-3.16669c0-.06158-.04993-.11145-.11151-.11145h-10.88812c-.06158,0-.11145.04987-.11145.11145v3.16669c0,.49072.39777.88849.88849.88849h1.88928v13.19446h-12.5v-1.88928c0-.49066-.39783-.88849-.88855-.88849h-3.16663c-.06158,0-.11151.04993-.11151.11151v10.88812c0,.06158.04993.11145.11151.11145h3.16663c.49072,0,.88855-.39777.88855-.88849v-1.88928h12.5v21.52777h-3.2782c-.49066,0-.88849.39783-.88849.88855v4.55554c0,.06158.04993.11151.11151.11151h13.66589c.06158,0,.11151-.04993.11151-.11151v-4.55554c0-.49072-.39783-.88855-.88855-.88855h-3.27814v-21.52777h12.5v1.88928c0,.49072.39783.88849.88849.88849h3.16669c.06158,0,.11151-.04987.11151-.11145v-10.88812c0-.06158-.04993-.11151-.11151-.11151Z" fill="#0b132b"/></svg>