<?xml version="1.0" encoding="UTF-8"?><svg id="a" xmlns="http://www.w3.org/2000/svg" viewBox="0 0 60 60"><path d="m41.56317,17.29145c-2.06812-3.74634-5.86707-6.28156-10.14551-6.74689.05237-.12103.0824-.25366.0824-.39331,0-.44208-.29553-.80688-.69507-.93805.11353-.16223.19507-.34888.19507-.56195,0-.32257-.16272-.59625-.39978-.77911.12561-.14252.20837-.32458.20837-.52948,0-.36102-.24084-.65601-.56738-.75989.00073-.00793.00854-.0127.00854-.02081v-1.70605c0-.13818-.1123-.25-.25-.25s-.25.11182-.25.25v1.70605c0,.00818.00781.01294.00867.02087-.32642.104-.56702.39893-.56702.75983,0,.2049.08252.38696.20825.52948-.23706.18286-.39966.45654-.39966.77911,0,.21307.08142.39972.19507.56195-.39966.13116-.69507.49597-.69507.93805,0,.13965.02991.27228.08228.39331-4.27905.46527-8.07825,3.00085-10.14636,6.74768h-4.81091v-.00018h-3.5v.00018h-5.125v34.52722c1.66113.43781,3.97876.87726,6.76685.88824.03589,0,.07129.00043.10693.00043,2.84314,0,5.20178-.448,6.87622-.88867v-.00653h22.5v.00568c1.67517.44189,4.03235.88989,6.87378.88989.08154,0,.16357-.00037.24585-.00122,2.71851-.02478,4.9856-.45447,6.63037-.88867V17.29145h-13.43689Zm-11.56335-4.33301c3.875,0,7.41504,2.10938,9.2959,5.39893h-18.5918c1.88086-3.28955,5.4209-5.39893,9.2959-5.39893ZM11.77667,50.20771c-1.43689-.00568-2.86902-.13715-4.27661-.39227v-30.02319h2.83923l.28577,3.33319h2.5l.28564-3.33319h2.83936v30.02283c-1.44092.26123-2.90637.39307-4.37622.39307l-.09717-.00043Zm25.22339-.89478v-9.26923c0-3.44116-2.82068-6.23077-6.30005-6.23077h-1.40002c-3.47937,0-6.29993,2.78961-6.29993,6.23077v9.26923h-4.25v-28.33331h2.8125l.3125,4.16669h3.33325l.3125-4.16669h2.5l.3125,4.16669h3.33337l.3125-4.16669h2.5l.3125,4.16669h3.33337l.3125-4.16669h2.8125v28.33331h-4.25Zm15.5.50214c-1.3667.24817-2.75708.37964-4.15308.39221l-.22314.00122c-1.46924,0-2.93359-.13184-4.37378-.39343v-30.02362h2.83911l.28589,3.33398h2.5l.28564-3.33398h2.83936v30.02362Z" fill="#0b132b"/></svg>