<?xml version="1.0" encoding="UTF-8"?><svg id="a" xmlns="http://www.w3.org/2000/svg" viewBox="0 0 40 60"><path d="m20.02392,58.49518C14.53173,52.17584.34326,34.33112,1.02294,19.48932c.19336-4.21387,1.55469-7.16797,2.13086-8.24316C5.69384,6.51959,11.62939,1.00006,20.00146,1.00006c8.3457.00586,14.26855,5.48438,16.80957,10.17383.76172,1.4043,2.05664,4.41992,2.17969,8.83398.41992,15.14746-13.54297,32.38379-18.9668,38.48731Z" fill="#fdf8ec"/><path d="m25.92217,15.6393l-.21935,2.92543h-2.33966l-.21935-2.92543h-1.75472l-.21935,2.92543h-2.33966l-.21935-2.92543h-1.75472l-.21935,2.92543h-2.33957l-.21935-2.92543h-1.97406v15.3607h5.0885v-5.61678c0-1.55106,1.25696-2.8084,2.80755-2.8084s2.80755,1.25734,2.80755,2.8084v5.61678h5.08886v-15.3607h-1.97406.00005Z" fill="#967b37"/><path d="m10.58955,30.99998h-1.56827c-.56405,0-1.02128-.45738-1.02128-1.02159v-11.41368c0-.56421.45724-1.02159,1.02128-1.02159h1.56827v13.45686Z" fill="#967b37"/><path d="m30.97873,30.99998h-1.56826v-13.45684h1.56826c.56405,0,1.02127.45738,1.02127,1.02159v11.41368c0,.56421-.45725,1.02159-1.02128,1.02159h0v-.00002Z" fill="#967b37"/><path d="m27.23777,14.21588c-1.45227-2.0083-3.69746-3.35284-6.19629-3.64813-.02953-.27709-.21802-.50359-.47621-.58837.07971-.11389.13697-.24493.13697-.39453,0-.22644-.11426-.41863-.28064-.547.0882-.10009.1463-.22791.1463-.37177,0-.25348-.16906-.46057-.39825-.5335.00049-.00555.00599-.00891.00599-.0146v-.94243c0-.09705-.0788-.17554-.17548-.17554-.09661,0-.17548.07849-.17548.17554v.94243c0,.00574.00549.00903.00611.01466-.22913.073-.39801.28009-.39801.53344,0,.14386.05792.27166.14618.37177-.16638.12836-.28051.32056-.28051.547,0,.14959.05719.28063.13691.39453-.25818.08478-.44659.31128-.47615.58837-2.49902.29523-4.74432,1.63971-6.19659,3.64813,0,0,14.47519,0,14.47518,0Z" fill="#967b37"/><path d="m20.01325,3c7.45426.00512,12.76029,4.91962,15.03901,9.12642.67672,1.24951,1.82855,3.942,1.93925,7.93578.36627,13.20836-10.97922,28.34336-16.95395,35.36864C11.11705,44.7547,2.52282,30.45186,3.02126,19.5806c.1748-3.8104,1.38309-6.43531,1.89454-7.38712C7.19437,7.95248,12.51254,3,20.00174,3h.01151m.00206-3h-.01357C11.4826,0,5.12902,5.45798,2.27308,10.77362,1.90434,11.45985.24402,14.65625.02442,19.44312c-.77223,16.84272,17.03655,37.23395,19.99091,40.55688,3.21729-3.53395,20.4508-22.86366,19.97503-40.02095-.14177-5.11492-1.81157-8.37925-2.30015-9.28135C34.80663,5.37428,28.46088.0058,20.01531,0h0Z" fill="#967b37"/></svg>