<?xml version="1.0" encoding="UTF-8"?><svg id="a" xmlns="http://www.w3.org/2000/svg" viewBox="0 0 40 60"><path d="m20.02392,58.49518C14.53173,52.17584.34326,34.33112,1.02294,19.48932c.19336-4.21387,1.55469-7.16797,2.13086-8.24316C5.69384,6.51959,11.62939,1.00006,20.00146,1.00006c8.3457.00586,14.26855,5.48438,16.80957,10.17383.76172,1.4043,2.05664,4.41992,2.17969,8.83398.41992,15.14746-13.54297,32.38379-18.9668,38.4873Z" fill="#b59c5b"/><path d="m20.01391,2c7.89362.00543,13.50818,5.20193,15.91766,9.65018.71918,1.32788,1.94305,4.18286,2.05951,8.38434.39203,14.13705-12.17487,30.28012-17.95917,36.93649-2.54053-2.98495-6.26764-7.68347-9.70984-13.23364C4.59008,34.49518,1.72009,26.12604,2.02233,19.53476c.1842-4.01529,1.46875-6.80252,2.01251-7.81454C6.44402,7.23621,12.07122,2,20.00176,2h.01215M20.00176,0C11.4826,0,5.12902,5.45798,2.27307,10.77362,1.90435,11.45984.24401,14.65625.02441,19.44312c-.77222,16.84271,17.03656,37.23395,19.99091,40.55688,3.21729-3.53394,20.45081-22.86365,19.97504-40.02094-.14178-5.11493-1.81158-8.37927-2.30017-9.28137C34.80663,5.37427,28.46087.0058,20.01531,0h-.01355Z" fill="#fffbf2"/><path d="m25.922,16.6393l-.21934,2.92543h-2.33965l-.21934-2.92543h-1.75472l-.21934,2.92543h-2.33965l-.21934-2.92543h-1.75472l-.21934,2.92543h-2.33956l-.21934-2.92543h-1.97406v15.36073h5.0885v-5.6168c0-1.55106,1.25696-2.8084,2.80755-2.8084s2.80755,1.25734,2.80755,2.8084v5.6168h5.08885v-15.36073h-1.97406Z" fill="#fffbf2"/><path d="m10.58938,32.00002h-1.56827c-.56404,0-1.02128-.45738-1.02128-1.02159v-11.41371c0-.56421.45724-1.02159,1.02128-1.02159h1.56827v13.45688Z" fill="#fffbf2"/><path d="m30.97855,32.00002h-1.56827v-13.45688h1.56827c.56404,0,1.02128.45738,1.02128,1.02159v11.41371c0,.56421-.45724,1.02159-1.02128,1.02159Z" fill="#fffbf2"/><path d="m27.2376,15.21588c-1.45227-2.0083-3.69745-3.35284-6.19629-3.64813-.02954-.2771-.21802-.5036-.4762-.58838.07971-.11389.13696-.24493.13696-.39453,0-.22644-.11426-.41864-.28064-.547.0882-.1001.1463-.22791.1463-.37177,0-.25348-.16907-.46057-.39825-.53351.00049-.00555.00598-.00891.00598-.01459v-.94244c0-.09705-.0788-.17554-.17548-.17554-.09662,0-.17548.07849-.17548.17554v.94244c0,.00574.00549.00903.0061.01465-.22913.073-.39801.28009-.39801.53345,0,.14386.05792.27167.14618.37177-.16638.12836-.28052.32056-.28052.547,0,.1496.05719.28064.1369.39453-.25818.08478-.44659.31128-.47614.58838-2.49902.29523-4.74432,1.63971-6.19659,3.64813h14.47516Z" fill="#fffbf2"/></svg>