<?xml version="1.0" encoding="UTF-8"?><svg id="a" xmlns="http://www.w3.org/2000/svg" viewBox="0 0 24 24"><path d="m5.61008,19.00001h12.70892c-.77875-2.7804-3.32538-4.82202-6.35443-4.82202s-5.57574,2.04163-6.35449,4.82202Z" fill="#6e6562"/><path d="m11.96457,10.60487c2.14209,0,4.04034-1.02429,5.24713-2.60486H6.71738c1.20679,1.58057,3.10504,2.60486,5.24719,2.60486Z" fill="#6e6562"/><path d="m23.00003,0H1.00003C.72385,0,.50003.22382.50003.50001v.69031c0,.12018.01288.23694.03528.35028.00897.04572.02576.08807.03815.13251.01807.06464.03442.12988.05939.19135.02307.05725.05347.10986.08203.16406.02252.04236.04272.08582.06842.12604.04016.06335.08673.12115.13416.17889.02014.02423.03864.04956.06.07269.05884.06445.12311.12231.19061.17767.01373.01105.02655.02283.04059.03351.07672.05933.15808.11102.2439.15753.00677.00366.01337.00739.0202.01099.09247.04858.18884.08856.28986.12079.00116.00037.00226.00067.00336.00104.10431.03308.21173.0564.32324.07013l-.00439.42224c-.0011.02728-.00262.05493-.00262.0816,0,3.54205,1.59149,6.73547,4.10449,8.50006-2.5127,1.7644-4.10449,4.95801-4.10449,8.50012,0,.03979.00201.07892.00409.11816l.00897.42163c-.89716.10724-1.59521.86206-1.59521,1.78809v.69031c0,.27612.22382.5.5.5h22c.27612,0,.5-.22388.5-.5v-.69031c0-.95038-.73511-1.72095-1.66638-1.79523l.00879-.41449c.00238-.0329.00446-.07373.00446-.11816,0-3.54211-1.59149-6.73553-4.10449-8.50006,2.51276-1.76447,4.10449-4.95807,4.10449-8.50012,0-.02759-.00153-.0545-.00262-.0816l-.03918-.41156c.00018,0,.00031-.00006.00049-.00006.35449-.02271.68005-.14374.94995-.34155.00226-.00165.00409-.0036.00629-.00519.08606-.06366.16687-.13306.2403-.21063.01202-.01257.02155-.02722.03314-.04016.06158-.06891.12067-.13965.17126-.21747.02118-.03223.03632-.06818.05536-.10187.03589-.06378.07336-.12628.10144-.19458.02399-.05792.03833-.12024.05621-.18103.01459-.0498.03424-.09735.04456-.14886.02319-.1153.03595-.23444.03595-.35675v-.69031C23.50003.22382,23.27615,0,23.00003,0Zm-6.40698,10.34497l-2.33093,1.63684,2.33099,1.63672c2.00702,1.40924,3.25378,4.03912,3.25464,6.83527l-.00378.05182-.0011.052-.00934.44238H4.09525l-.0094-.44263-.00195-.04388-.00171-.03168c0-2.82416,1.24683-5.45404,3.25385-6.86334l2.33093-1.63678-2.33099-1.63678c-2.00702-1.4093-3.25378-4.03912-3.25275-6.86444l.00116-.02979.00031-.02991.00439-.42078h15.70807l.04968.52167c-.01166,2.80902-1.25616,5.42059-3.25378,6.8233Z" fill="#6e6562"/></svg>