<?xml version="1.0" encoding="UTF-8"?><svg id="a" xmlns="http://www.w3.org/2000/svg" viewBox="0 0 60 60"><path d="m48.25006,45.17628h-.75793c.00427-.05804.00793-.13007.00793-.2085,0-6.25067-2.81824-11.88605-7.26831-14.99994,4.44958-3.11377,7.26831-8.74945,7.26831-15.00006,0-.04871-.00269-.09625-.00464-.14404h.75464c1.6499,0,3-1.35004,3-3s-1.3501-3-3-3H11.75006c-1.65015,0-3,1.34998-3,3s1.34985,3,3,3h.75464c-.00195.04822-.00464.09692-.00464.14404,0,6.25061,2.81824,11.88599,7.26831,14.99994-4.44958,3.11371-7.26831,8.74939-7.26831,15.00006,0,.07031.00354.13934.0072.2085h-.7572c-1.65015,0-3,1.34998-3,3s1.34985,3,3,3h36.5c1.6499,0,3-1.35004,3-3s-1.3501-3-3-3Zm-33.25-.2085c0-6.68262,3.69092-12.38135,8.74731-14.30518.64746-.24658.64746-1.14307,0-1.38965-5.0564-1.92383-8.74731-7.62256-8.74731-14.30518,0-.04883.00562-.0957.0061-.14404h29.98779c.00049.04834.0061.09521.0061.14404,0,6.68262-3.69092,12.38135-8.74731,14.30518-.64746.24658-.64746,1.14307,0,1.38965,5.0564,1.92383,8.74731,7.62256,8.74731,14.30518,0,.07031-.00806.13818-.00879.2085H15.00885c-.00073-.07031-.00879-.13818-.00879-.2085Z" fill="#0b132b"/><path d="m38.43646,39.59919c-2.54431-1.94751-5.3512-2.80298-7.18665-3.19513v-8.94049c4.37085-.46448,8.02271-3.32446,9.6167-7.24677h-21.73315c1.59399,3.92218,5.24585,6.78223,9.61646,7.2467v8.97241c-2.00537.47229-5.08777,1.48596-7.75,3.73468-1.11768.94397-1.91772,1.90259-2.49683,2.75568h23.03894c-.64221-.99408-1.61438-2.18561-3.10547-3.32709Z" fill="#0b132b"/></svg>