<?xml version="1.0" encoding="UTF-8"?><svg id="a" xmlns="http://www.w3.org/2000/svg" viewBox="0 0 60 60"><path d="m40.95578,48.89916c-11.57258,2.72599-23.16478-4.77736-25.28676-16.63867-1.85862-10.38917,4.57926-20.72209,14.72038-23.64566,4.36518-1.25843,8.76557-1.0214,12.7019.37316.22855.08097.38404-.2356.17664-.3612-6.04831-3.66286-13.63488-4.79136-21.04301-2.27161C10.73227,10.26421,3.65436,22.19273,5.69703,34.15891c2.44972,14.35075,16.42599,23.45641,30.3796,20.16956,6.63039-1.56183,12.00177-5.63857,15.37384-10.97544.12944-.20486-.15084-.4184-.31911-.24402-2.67606,2.77321-6.14529,4.84079-10.17557,5.79015Z" fill="#0b132b"/><path d="m53.17492,31.15974l-5.80352-2.38524-4.12871,4.72483c-.12655.14482-.36459.04502-.35003-.14675l.47511-6.25656-5.76942-2.46659c-.17683-.0756-.15548-.33283.0314-.37824l6.09716-1.48153.56302-6.24926c.01726-.19154.2685-.25072.36943-.08702l3.29314,5.34093,6.11738-1.39567c.1875-.04278.32142.17788.19692.32446l-4.06189,4.7824,3.21774,5.38669c.09862.1651-.06985.36066-.24773.28755Z" fill="#0b132b"/></svg>