<?xml version="1.0" encoding="UTF-8"?><svg id="a" xmlns="http://www.w3.org/2000/svg" viewBox="0 0 60 60"><path d="m49.73595,5.00001h-4.74963c-.03082,0-.05579.02496-.05579.05573v2.27777c0,.24536.19891.44427.44427.44427h.59814v7.88672c0,7.63226-6.43219,13.90601-14.59766,14.54681v-2.20496c6.43878-.66992,11.47266-5.98523,11.47266-12.42596v-7.80261h.58307c.24536,0,.44427-.19891.44427-.44427v-2.27777c0-.03076-.02496-.05573-.05573-.05573h-4.74963c-.03076,0-.05573.02496-.05573.05573v2.27777c0,.24536.19885.44427.44421.44427h.61176v7.80261c0,4.909-3.79181,8.96997-8.69489,9.62073v-3.18921c3.36487-.61432,5.91711-3.43439,5.91711-6.81671v-7.41742h.58307c.24536,0,.44427-.19891.44427-.44427v-2.27777c0-.03076-.02496-.05573-.05573-.05573h-4.74963c-.03082,0-.05579.02496-.05579.05573v2.27777c0,.24536.19891.44427.44427.44427h.61176v7.41742c0,1.85248-1.3244,3.40796-3.13934,3.94824V7.77778h.61102c.24536,0,.44421-.19891.44421-.44427v-2.27777c0-.03076-.0249-.05573-.05573-.05573h-4.74963c-.03076,0-.05573.02496-.05573.05573v2.27777c0,.24536.19891.44427.44427.44427h.5838v11.35742c-1.80023-.54822-3.11066-2.09723-3.11066-3.94v-7.41742h.58307c.24536,0,.44427-.19891.44427-.44427v-2.27777c0-.03076-.02496-.05573-.05579-.05573h-4.74963c-.03076,0-.05573.02496-.05573.05573v2.27777c0,.24536.19891.44427.44427.44427h.61176v7.41742c0,3.3728,2.53766,6.18762,5.88843,6.81256v3.18915c-4.88916-.66284-8.66626-4.7171-8.66626-9.61652v-7.80261h.58313c.24536,0,.44421-.19891.44421-.44427v-2.27777c0-.03076-.0249-.05573-.05573-.05573h-4.74963c-.03076,0-.05573.02496-.05573.05573v2.27777c0,.24536.19891.44427.44427.44427h.61169v7.80261c0,6.43103,5.01923,11.73877,11.44403,12.42169v2.20789c-8.15204-.65314-14.56903-6.92206-14.56903-14.54547v-7.88672h.59668c.24536,0,.44427-.19891.44427-.44427v-2.27777c0-.03076-.02496-.05573-.05573-.05573h-4.74963c-.03082,0-.05573.02496-.05573.05573v2.27777c0,.24536.19885.44427.44421.44427h.59814v7.88672c0,8.70459,6.94269,15.91638,15.95789,17.17365v17.99518h-1.77777c-.55225,0-1,.44769-1,1v3.04169c0,.06903.05597.125.125.125h10.86115c.06903,0,.125-.05597.125-.125v-3.04169c0-.55231-.44775-1-1-1h-1.77777v-17.99109c9.02917-1.24591,15.98651-8.46393,15.98651-17.17773v-7.88672h.59668c.24536,0,.44427-.19891.44427-.44427v-2.27777c0-.03076-.02496-.05573-.05573-.05573Z" fill="#0b132b"/></svg>