<?xml version="1.0" encoding="UTF-8"?><svg id="a" xmlns="http://www.w3.org/2000/svg" viewBox="0 0 40 60"><path d="m20.02394,58.49518C14.53175,52.17584.34327,34.33112,1.02296,19.48932c.19336-4.21387,1.55469-7.16797,2.13086-8.24316C5.69386,6.51959,11.6294,1.00006,20.00147,1.00006c8.3457.00586,14.26855,5.48438,16.80957,10.17383.76172,1.4043,2.05664,4.41992,2.17969,8.83398.41992,15.14746-13.54297,32.38379-18.9668,38.4873Z" fill="#608b76"/><path d="m20.01386,2c7.89362.00543,13.50818,5.20193,15.91766,9.65018.71918,1.32788,1.94305,4.18286,2.05951,8.38434.39203,14.13705-12.17487,30.28012-17.95917,36.93649-2.54053-2.98499-6.2677-7.6835-9.70984-13.23364C4.59004,34.49518,1.72004,26.12604,2.02229,19.53476c.1842-4.01529,1.46875-6.80252,2.01251-7.81454C6.44398,7.23621,12.07118,2,20.00172,2h.01215M20.00172,0C11.48255,0,5.12898,5.45798,2.27302,10.77362,1.90431,11.45984.24397,14.65625.02436,19.44312c-.77222,16.84271,17.03656,37.23395,19.99091,40.55688,3.21729-3.53394,20.45081-22.86365,19.97504-40.02094-.14178-5.11493-1.81158-8.37927-2.30017-9.28137C34.80659,5.37427,28.46083.0058,20.01527,0h-.01355Z" fill="#fffbf2"/><path d="m31.93287,30.76253l-8.9431-18.21555c-.35804-.72927-1.56685-.72927-1.92489,0l-3.43941,7.00542,2.80413,9.58219-4.80383-9.78269c-.35807-.72919-1.56676-.72919-1.92483,0l-5.60321,11.41058c-.28873.58798.21643,1.23755.96242,1.23755h21.91028c.74596,0,1.25112-.64952.96245-1.2375Z" fill="#fffbf2"/></svg>