<?xml version="1.0" encoding="UTF-8"?><svg id="a" xmlns="http://www.w3.org/2000/svg" viewBox="0 0 60 60"><path d="m55.3631,43.49799l-6.97461-12.08057c-.45117-.78271-1.26074-1.25-2.16504-1.25s-1.71387.46729-2.16504,1.25l-.91211,1.57996-10.96777-18.99548c-.45117-.78271-1.26074-1.25-2.16504-1.25s-1.71387.46729-2.16504,1.25l-7.02686,12.17133-.92627-1.60443c-.45117-.78271-1.26074-1.25-2.16504-1.25s-1.71387.46729-2.16504,1.25l-10.92871,18.9292c-.45215.78271-.45215,1.71729,0,2.5s1.26172,1.25,2.16504,1.25h46.39648c.9043,0,1.71387-.46729,2.16504-1.25.45215-.78271.45215-1.71729,0-2.5Zm-9.13965-9.83105l2.38306,4.12793h-4.7655l1.03772-1.79688-.00049-.00085,1.34521-2.3302Zm-16.20996-17.41553l3.50293,6.06738h-7.00525l3.50232-6.06738Zm-7.45898,12.92188l2.80225-4.85449h9.31433l6.7428,11.6792-4.33008,7.5c-.10083.17499-.17139.35895-.22729.54565-.01147.03864-.02405.07623-.03369.11517-.00732.02997-.01978.05902-.02612.08917h-5.68555c-.00635-.03015-.0188-.0592-.02612-.08917-.00964-.03894-.02222-.07654-.03369-.11517-.05591-.18671-.12646-.37067-.22729-.54565l-8.26953-14.32471Zm-4.82422-2.35498l1.3595,2.3548-.00012.00018,1.82544,3.16162h-6.36963l3.18481-5.5166Zm-10.0625,17.42969l5.72302-9.91309h8.67896l5.72302,9.91309H7.66779Zm32.44727,0l2.05786-3.5647.51318-.88843h7.07495l2.5708,4.45312h-12.2168Z" fill="#0b132b"/><polygon points="48.60651 37.79487 46.22345 33.66694 44.87824 35.99714 44.87872 35.99799 43.841 37.79487 48.60651 37.79487" fill="#fff"/><polygon points="26.51117 22.3188 33.51642 22.3188 30.01349 16.25141 26.51117 22.3188" fill="#fff"/><polygon points="19.08978 29.1731 17.73029 26.81831 14.54547 32.33491 20.9151 32.33491 19.08966 29.17329 19.08978 29.1731" fill="#fff"/></svg>