<?xml version="1.0" encoding="UTF-8"?><svg id="a" xmlns="http://www.w3.org/2000/svg" viewBox="0 0 40 60"><path d="m20.02441,58.49512C14.53223,52.17773.34277,34.33691,1.02344,19.48926c.19336-4.22266,1.55469-7.1709,2.13086-8.24219C5.69336,6.52002,11.62988,1,20.00195,1c8.3457.00586,14.26855,5.48438,16.80957,10.17432.76074,1.40625,2.05664,4.42432,2.17871,8.83252.41992,15.14355-13.54199,32.38379-18.96582,38.48828Z" fill="#c2510c"/><path d="m20.01546,2c7.89276.00606,13.50674,5.2022,15.91611,9.65015.71918,1.32794,1.9431,4.18299,2.05956,8.38434.39201,14.13696-12.17491,30.28009-17.95923,36.9365-2.54045-2.98495-6.26784-7.68376-9.70982-13.23361C4.59011,34.49519,1.72011,26.12605,2.02231,19.53477c.18421-4.0154,1.46879-6.80256,2.01258-7.81458C6.444,7.23621,12.0712,2,20.00357,2.00001h.01189m-.00015-2.00001h-.00002s-.01355.00001-.01355.00001c-8.51913-.00001-14.87273,5.45796-17.72867,10.77361C1.90435,11.45984.24401,14.65625.02441,19.44313c-.77222,16.84271,17.03656,37.23396,19.99091,40.55687,3.21729-3.53395,20.45081-22.86366,19.97504-40.02095-.14178-5.11493-1.81158-8.37925-2.30016-9.28136C34.80663,5.37428,28.46088.0058,20.0153,0h0Z" fill="#7c3612"/><path d="m31.91758,27.7625l-8.9431-18.21554c-.35804-.72927-1.56685-.72927-1.92489,0l-3.43941,7.00542,2.80413,9.58219-4.80383-9.78269c-.35807-.72919-1.56676-.72919-1.92483,0l-5.60321,11.41058c-.28873.58798.21643,1.23755.96242,1.23755h21.91027c.74596,0,1.25112-.64952.96244-1.2375Z" fill="#fff9ed"/></svg>