<?xml version="1.0" encoding="UTF-8"?><svg id="a" xmlns="http://www.w3.org/2000/svg" viewBox="0 0 40 60"><path d="m20.02392,58.49518C14.53173,52.17584.34326,34.33112,1.02294,19.48932c.19336-4.21387,1.55469-7.16797,2.13086-8.24316C5.69384,6.51959,11.62939,1.00006,20.00146,1.00006c8.3457.00586,14.26855,5.48438,16.80957,10.17383.76172,1.4043,2.05664,4.41992,2.17969,8.83398.41992,15.14746-13.54297,32.38379-18.9668,38.48731Z" fill="#def7eb"/><path d="m31.91758,27.7625l-8.9431-18.21554c-.35804-.72927-1.56685-.72927-1.92489,0l-3.43941,7.00542,2.80413,9.58219-4.80383-9.78269c-.35807-.72919-1.56676-.72919-1.92483,0l-5.60321,11.41058c-.28873.58798.21643,1.23755.96242,1.23755h21.91027c.74596,0,1.25112-.64952.96244-1.2375Z" fill="#3e5f4f"/><path d="m20.01324,3c7.45424.00512,12.76028,4.91963,15.03899,9.12638.67674,1.24954,1.82858,3.94211,1.93929,7.93581.36627,13.20834-10.97922,28.34336-16.95396,35.36865C11.11703,44.75465,2.52283,30.45181,3.02126,19.5806c.1748-3.81028,1.3831-6.43529,1.89454-7.38712C7.19436,7.95248,12.51253,3,20.00174,3h.01151m.00206-3h-.01357C11.4826,0,5.12901,5.45798,2.27307,10.77362,1.90434,11.45985.24401,14.65625.02441,19.44312c-.77222,16.84272,17.03657,37.23395,19.99091,40.55688,3.21729-3.53395,20.45081-22.86366,19.97504-40.02095-.14178-5.11492-1.81158-8.37925-2.30016-9.28135C34.80663,5.37428,28.46088.0058,20.0153,0h0Z" fill="#3e5f4f"/></svg>