<?xml version="1.0" encoding="UTF-8"?><svg id="a" xmlns="http://www.w3.org/2000/svg" viewBox="0 0 60 60"><path d="m37.19513,4.80494c-9.94116-.00006-18,8.05884-18,17.99994,0,4.35901,1.55029,8.35529,4.12842,11.46973l-4.49707,4.10284-.08337-.08344c-.75427-.75427-1.8949-.85681-2.59204-.23303l-10.81763,9.67896c-.74695.66827-.69568,1.9046.11243,2.71265l4.10156,4.10156c.80798.80804,2.04431.85925,2.71265.11237l9.67896-10.81757c.62378-.6972.52124-1.83777-.23315-2.59204l-.08337-.08344,4.10291-4.49707c3.1145,2.57812,7.11072,4.12854,11.46973,4.12854,9.94104,0,18-8.0589,18-18S47.13629,4.80494,37.19513,4.80494Zm9.54586,27.54592c-2.54973,2.54985-5.93992,3.95408-9.54586,3.95408-7.4439-.00006-13.5-6.0561-13.5-13.50006,0-3.60595,1.40429-6.99613,3.95402-9.54592,2.54985-2.54979,5.94003-3.95402,9.54598-3.95402,7.4439,0,13.5,6.0561,13.5,13.5,0,3.60595-1.40429,6.99613-3.95414,9.54592Z" fill="#0b132b"/></svg>