<?xml version="1.0" encoding="UTF-8"?><svg id="a" xmlns="http://www.w3.org/2000/svg" viewBox="0 0 40 60"><path d="m20.02451,58.49512C14.53233,52.17773.34287,34.33691,1.02354,19.48926c.19336-4.22266,1.55469-7.1709,2.13086-8.24219C5.69346,6.52002,11.62998,1,20.00205,1c8.3457.00586,14.26855,5.48438,16.80957,10.17432.76074,1.40625,2.05664,4.42432,2.17871,8.83252.41992,15.14355-13.54199,32.38379-18.96582,38.48828Z" fill="#c2510c"/><path d="m20.01545,2c7.89279.00606,13.50674,5.2022,15.91612,9.65016.71918,1.3279,1.9431,4.18291,2.05956,8.38433.39201,14.1371-12.17491,30.28014-17.95923,36.93651-2.54047-2.98491-6.26758-7.68334-9.70984-13.23362C4.59011,34.49519,1.7201,26.12605,2.0223,19.53479c.18423-4.01544,1.4688-6.80257,2.01257-7.81459C6.44399,7.23621,12.07119,2,20.00359,2.00001h.01186m-.00015-2.00001h0s-.01355.00001-.01355.00001c-8.51915-.00001-14.87274,5.45796-17.72868,10.77361C1.90434,11.45984.24401,14.65625.02441,19.44313c-.77222,16.84271,17.03656,37.23396,19.99091,40.55687,3.2173-3.53395,20.45081-22.86366,19.97505-40.02095-.14178-5.11493-1.81158-8.37925-2.30017-9.28136C34.80663,5.37428,28.46087.0058,20.0153,0h0Z" fill="#7c3612"/><path d="m28.1385,8.5c1.30214,0,2.36153,1.05938,2.36153,2.36154v16.27692c0,1.30216-1.05939,2.36154-2.36153,2.36154H11.86156c-1.30215,0-2.36154-1.05938-2.36154-2.36154V10.86154c0-1.30216,1.05939-2.36154,2.36154-2.36154h16.27693m0-1.5H11.86156c-2.13268,0-3.86154,1.72887-3.86154,3.86154v16.27692c0,2.13267,1.72887,3.86154,3.86154,3.86154h16.27693c2.13266,0,3.86153-1.72887,3.86153-3.86154V10.86154c0-2.13267-1.72887-3.86154-3.86153-3.86154h0Z" fill="#fff9ed"/><line x1="30.92861" y1="8.1966" x2="8.00003" y2="26.63548" fill="none" stroke="#fff9ed" stroke-dasharray="0 0 2 1" stroke-miterlimit="10"/><line x1="23.28445" y1="14.34393" x2="22.63523" y2="31" fill="none" stroke="#fff9ed" stroke-dasharray="0 0 2 1" stroke-miterlimit="10"/><line x1="16.73192" y1="19.6134" x2="8.83168" y2="8.47228" fill="none" stroke="#fff9ed" stroke-dasharray="0 0 2 1" stroke-miterlimit="10"/></svg>