<?xml version="1.0" encoding="UTF-8"?><svg id="a" xmlns="http://www.w3.org/2000/svg" viewBox="0 0 60 60"><path d="m42.77566,6.00004l-9.68556.00004c-2.51536-.00009-4.88009.97944-6.65873,2.75808L8.22759,26.96193c-2.96766,2.96766-2.96766,7.79639-.00017,10.76404l14.04494,14.04477c1.43743,1.43761,3.34883,2.2293,5.38202,2.22922,2.03302.00009,3.94437-.79165,5.38206-2.22935l18.20373-18.20364c1.77877-1.77886,2.75825-4.14381,2.75799-6.65916v-9.68508c0-6.18822-5.03442-11.22264-11.22251-11.22269Zm7.22255,11.22264v9.68543c.00009,1.43674-.57073,2.81462-1.5865,3.83039l-18.20377,18.20377c-.70525.70516-1.62936,1.05768-2.55359,1.05773s-1.84843-.35256-2.55359-1.05773l-14.04486-14.04468c-1.41029-1.41029-1.4102-3.6969,0-5.10719L29.25979,11.58659c1.01586-1.01586,2.39369-1.58654,3.83031-1.58659l9.68552.00009c3.98887,0,7.22255,3.23368,7.2226,7.2226Z" fill="#0b132b"/><circle cx="44.25262" cy="15.74563" r="2.9342" fill="#0b132b"/><rect x="15.36533" y="25.27993" width="17.73901" height="3.99994" transform="translate(-12.19158 25.12672) rotate(-45)" fill="#0b132b"/><rect x="20.58226" y="31.8747" width="11.08618" height="3.99994" transform="translate(-16.30107 28.39507) rotate(-45)" fill="#0b132b"/><rect x="25.63665" y="38.07708" width="5.54321" height="3.99994" transform="translate(-20.01817 31.82597) rotate(-45)" fill="#0b132b"/></svg>