<?xml version="1.0" encoding="UTF-8"?><svg id="a" xmlns="http://www.w3.org/2000/svg" viewBox="0 0 40 60"><path d="m20.02392,58.49518C14.53173,52.17584.34326,34.33112,1.02294,19.48932c.19336-4.21387,1.55469-7.16797,2.13086-8.24316C5.69384,6.51959,11.62939,1.00006,20.00146,1.00006c8.3457.00586,14.26855,5.48438,16.80957,10.17383.76172,1.4043,2.05664,4.41992,2.17969,8.83398.41992,15.14746-13.54297,32.38379-18.9668,38.4873Z" fill="#6f3e15"/><path d="m20.01391,2c7.89362.00543,13.50818,5.20193,15.91766,9.65018.71918,1.32788,1.94305,4.18286,2.05951,8.38434.39203,14.13705-12.17487,30.28012-17.95917,36.93649-2.54053-2.98495-6.26764-7.68347-9.70984-13.23364C4.59008,34.49518,1.72009,26.12604,2.02233,19.53476c.1842-4.01529,1.46875-6.80252,2.01251-7.81454C6.44402,7.23621,12.07122,2,20.00176,2h.01215M20.00176,0C11.4826,0,5.12902,5.45798,2.27307,10.77362,1.90435,11.45984.24401,14.65625.02441,19.44312c-.77222,16.84271,17.03656,37.23395,19.99091,40.55688,3.21729-3.53394,20.45081-22.86365,19.97504-40.02094-.14178-5.11493-1.81158-8.37927-2.30017-9.28137C34.80663,5.37427,28.46087.0058,20.01531,0h-.01355Z" fill="#fffbf2"/><rect x="21.42654" y="13.44488" width="5.12825" height="5.12825" rx=".51283" ry=".51283" transform="translate(-4.2933 21.65325) rotate(-45.00071)" fill="#fffbf2"/><path d="m23.10563,12.42239c-4.35876-3.48779-8.92373-5.10732-11.72216-4.15173,2.58413,1.50986,5.72878,3.90149,8.98011,6.89375l2.74205-2.74201Z" fill="#fffbf2"/><path d="m27.57723,16.89401l-2.74198,2.74208c2.99226,3.25131,5.38394,6.39593,6.89377,8.98011.95559-2.79843-.66395-7.36345-4.15179-11.7222Z" fill="#fffbf2"/><path d="m27.94891,14.46818c.215-.22233.21209-.57599-.00664-.79469l-1.61608-1.61608c-.21873-.2187-.57236-.22164-.79469-.00664l-.51605.4991,2.43429,2.43432.49917-.51601Z" fill="#fffbf2"/><path d="m20.45136,16.95368l-12.14427,11.56805c-.40303.38391-.41082,1.0244-.01724,1.418l1.77003,1.77007c.39359.3936,1.03409.38582,1.41801-.01722l11.5681-12.1443-2.59464-2.5946Z" fill="#fffbf2"/></svg>