<?xml version="1.0" encoding="UTF-8"?><svg id="a" xmlns="http://www.w3.org/2000/svg" viewBox="0 0 40 60"><path d="m20.02392,58.49518C14.53173,52.17584.34326,34.33112,1.02294,19.48932c.19336-4.21387,1.55469-7.16797,2.13086-8.24316C5.69384,6.51959,11.62939,1.00006,20.00146,1.00006c8.3457.00586,14.26855,5.48438,16.80957,10.17383.76172,1.4043,2.05664,4.41992,2.17969,8.83398.41992,15.14746-13.54297,32.38379-18.9668,38.48731Z" fill="#feeee0"/><rect x="21.92687" y="12.94488" width="5.12825" height="5.12825" rx=".51283" ry=".51283" transform="translate(-3.7932 21.86058) rotate(-45.00071)" fill="#623713"/><path d="m23.60596,11.92239c-4.35876-3.48779-8.92373-5.10732-11.72216-4.15173,2.58413,1.50986,5.72878,3.90149,8.98011,6.89375l2.74205-2.74201h0Z" fill="#623713"/><path d="m28.07756,16.39401l-2.74198,2.74208c2.99226,3.25131,5.38394,6.39593,6.89377,8.98011.95559-2.79843-.66395-7.36345-4.15179-11.72219Z" fill="#623713"/><path d="m28.44924,13.96817c.215-.22233.21209-.57599-.00664-.79469l-1.61608-1.61608c-.21873-.2187-.57236-.22164-.79469-.00664l-.51605.4991,2.43429,2.43432.49917-.51601Z" fill="#623713"/><path d="m20.95169,16.45367l-12.14427,11.56805c-.40303.38391-.41082,1.0244-.01724,1.418l1.77003,1.77007c.39359.3936,1.03409.38582,1.41801-.01722l11.5681-12.1443-2.59464-2.5946h.00001Z" fill="#623713"/><path d="m20.01324,3c7.45426.00512,12.76029,4.91962,15.03902,9.12642.67672,1.24951,1.82855,3.942,1.93925,7.93578.36626,13.20828-10.97923,28.34333-16.95396,35.36864C11.11704,44.75469,2.52282,30.45186,3.02126,19.5806c.1748-3.8104,1.38309-6.43531,1.89454-7.38712C7.19437,7.95248,12.51254,3,20.00174,3h.01151m.00206-3h-.01357C11.4826,0,5.12901,5.45798,2.27308,10.77362,1.90434,11.45985.24401,14.65625.02441,19.44312c-.77223,16.84272,17.03655,37.23395,19.99091,40.55688,3.21728-3.53395,20.45081-22.86366,19.97504-40.02095-.14177-5.11492-1.81157-8.37925-2.30016-9.28135C34.80663,5.37428,28.46086.0058,20.0153,0h0Z" fill="#623713"/></svg>