<?xml version="1.0" encoding="UTF-8"?><svg id="a" xmlns="http://www.w3.org/2000/svg" viewBox="0 0 60 60"><rect x="9.99999" y="17.25398" width="40" height="4" fill="#0b132b"/><path d="m59.85076,49.76673l-1.47034-3.84943c-1.77362-4.64343-5.33466-8.47772-9.98254-10.23975-.30627-.11609-.61963-.22491-.94025-.32568-4.18781-1.31628-6.67047-.33026-16.18042.87457-12.66418,1.60449-12.86005.43848-16.9989,1.97748-3.37836,1.25616-8.87189,4.12427-14.12909,11.56281-.10217.13165-.1496.26495-.14929.39496.00134.58179,1.3595.92804,2.31323,1.11481,8.24078.93207,17.47498,1.55499,27.54755,1.56073,10.18286.00574,19.5116-.62036,27.82617-1.56073,1.61359,0,2.73047-.77924,2.16388-1.50977Z" fill="#0b132b"/><path d="m13.19713,36.29628c1.08521-.4035,1.96429-.64917,2.80286-.81207v-12.23022h-4v13.54633c.3985-.16956.79199-.35339,1.19714-.50403Z" fill="#0b132b"/><path d="m30.88732,34.14888c.38861-.04926.74823-.09729,1.11267-.14545v-10.74945h-4v11.23749c.88293-.09723,1.84058-.20996,2.88733-.34259Z" fill="#0b132b"/><path d="m23.99999,34.8733v-11.61932h-4v11.8609c1.02075-.04688,2.2934-.10699,4-.24158Z" fill="#0b132b"/><path d="m36.62944,33.34907c1.26147-.18616,2.3623-.34711,3.37054-.47144v-9.62366h-4v10.18762c.20966-.03082.42694-.06262.62946-.09253Z" fill="#0b132b"/><polygon points="29.99999 7.16273 10.99999 15.34523 48.99999 15.34523 29.99999 7.16273" fill="#0b132b"/><path d="m47.99999,33.28486v-10.03088h-4v9.38892c1.36572.04169,2.64069.24561,4,.64197Z" fill="#0b132b"/></svg>