<?xml version="1.0" encoding="UTF-8"?><svg id="a" xmlns="http://www.w3.org/2000/svg" viewBox="0 0 60 60"><path d="m44.33942,38.81831l-5.73535-.51123,3.85693,4.60925c-17.82495-1.92993-18.78467-4.96765-18.78931-4.99988-.16895-1.18994,5.27344-4.51709,7.32324-5.77002,5.30762-3.24414,10.32031-6.30859,9.68848-10.76904-.67627-4.77289-7.53552-7.59534-22.75586-9.27148l4.69141-3.89648-5.73364-.52881-7.37549,6.12939,6.12939,7.37549,5.73364.5293-3.84192-4.62006c17.26257,1.94037,18.19666,4.95215,18.20129,4.98431.17188,1.20654-5.29004,4.54492-7.3457,5.80127-5.2959,3.23779-10.29883,6.2959-9.66406,10.74219.68372,4.79773,7.72192,7.62329,23.35437,9.28418l-4.67737,3.90918,5.73535.51172,7.35669-6.15234-6.1521-7.35693Z" fill="#0b132b"/></svg>