<?xml version="1.0" encoding="UTF-8"?><svg id="a" xmlns="http://www.w3.org/2000/svg" viewBox="0 0 60 60"><path d="m52.88728,48.59522l-11.91565-30.05444c-.43475-1.09692-1.80865-1.39502-2.89636-.63599l-8.94647,8.94653-5.39764-5.91614.08344-.08337c.75427-.75439.85681-1.8949.23303-2.59204L14.36872,7.44214c-.66827-.74695-1.90466-.6958-2.71271.1123l-4.1015,4.10156c-.80811.80811-.85931,2.04443-.11243,2.71265l10.81763,9.67896c.6972.62378,1.83771.52124,2.59204-.23303l.08344-.08337,24.77594,22.60425c.04065.03711.08356.05786.1264.07751-.13867.18103-.40094.26868-.63147.07727l-19.51373-16.20239-7.78857,7.78882c-.75885,1.08716-.45935,2.46045.6369,2.89502,10.01843,3.97168,20.03705,7.9436,30.05505,11.91553,2.46399.97681,5.26837-1.828,4.29156-4.29199Z" fill="#0b132b"/></svg>