<?xml version="1.0" encoding="UTF-8"?><svg id="a" xmlns="http://www.w3.org/2000/svg" viewBox="0 0 24 24"><path d="m14.76987,11.99995l7.27191-7.56396c.18872-.19629.18567-.50751-.0069-.70007l-1.77081-1.77081c-.19257-.19257-.50378-.19562-.70007-.0069l-7.50842,7.21851L5.12918,1.97211c-.19403-.20184-.51599-.20502-.71399-.00702l-2.45007,2.45007c-.198.198-.19482.51996.00702.71399l7.14679,6.87079-7.14679,6.87085c-.20184.19403-.20502.51599-.00702.71399l2.45007,2.45007c.198.198.51996.19482.71399-.00702l6.92639-7.20459,7.50842,7.21851c.19629.18872.50751.18567.70007-.0069l1.77081-1.77081c.19257-.1925.19562-.50378.0069-.70007l-7.27191-7.56403Z" fill="#6e6562"/></svg>