<?xml version="1.0" encoding="UTF-8"?><svg id="a" xmlns="http://www.w3.org/2000/svg" viewBox="0 0 60 60"><path d="m54,9.56741l-.59805-1.64571c-.11147-.33723-.28811-.62527-.52513-.85635-.35267-.34385-.83301-.54961-1.42771-.61158-1.34254-.13976-7.99907.01232-13.87209.1466-2.96339.06783-5.52583.12638-6.64976.12729-3.28002-.27055-5.53891.11117-6.88601,1.16575l-6.22531-1.39052-.04859-.00882c-.12539-.01772-3.11889-.43046-7.19237-.04083-.22454.02152-.90783.08691-1.43858.61759-.1439.1439-.2633.31155-.35909.49762-.73908.71815-1.26287,1.76344-1.75829,2.75238-.37326.74508-.62656,1.33859-.62656,1.51261,0,8.52613-.39248,11.20454-.39246,11.20456.00281.01684.10875,4.86862.3206,14.57218.06813,3.12127.13478,7.81873.07186,13.63909,0,.59071.23945,1.12549.62656,1.51261.47437.47437,1.13623.58898,1.51261.62654,7.27087.72566,18.32197.01032,18.34933.00854h.00004c10.57925,0,11.65972-.17162,12.77248-.13217.42145.01492.72857.05032.80829.05768.9192.08473,2.98556.13417,7.48569.06596.74834-.01135,1.11705-.20525,1.65008-.41057,1.42881-.55045,3.0454-1.72538,3.54157-3.02728.24808-.24927.36172-.36504.36375-.62405.00487-.40361-.11277-1.70974-1.17982-8.34239l.77925-3.39955-.40225-2.74128,1.2935-25.14974.00646-.12615Z" fill="#0b132b"/><path d="m51.0544,40.94245l.78138-3.40837-.38628-2.63178.00319-.06152,1.29023-25.08518-.52208-1.43752c-.04821-.14812-.12007-.26948-.21375-.3608-.14904-.14523-.37373-.23177-.68709-.26439-.22808-.02376-.65015-.03785-1.21833-.04432-.20458.83055-.58835,1.47524-1.09743,1.72014-1.91926.82355-3.8385,1.6471-5.75777,2.47066-.59666,1.21813-1.19332,2.43623-1.78998,3.65437.53265-1.71623,1.06531-3.43245,1.59794-5.14868,1.07063-.32492,2.14122-.64986,3.21183-.97479.58729-.67917.97419-1.24359,1.21967-1.7153-2.85254.03021-6.71797.11856-9.88047.19091-2.99381.06844-5.57928.12759-6.70367.12759l-.05171-.00213c-3.10003-.25853-5.19141.09596-6.21641,1.05299l-.24021.22424-6.82321-1.52405c-.28005-.0368-3.12976-.38962-6.87658-.0311-.13824.01323-.46216.04425-.67629.25838-.18462.18455-.24196.46346-.25747.66496-.46095,5.97986.0787,8.84272.11299,9.01548.43099,1.73863.29176,5.24775.01498,12.21946-.00441.19124-.12615,5.63236-.12615,19.46735,0,.14915.0376.29241.10763.41958.5871-1.0496,1.17421-2.09923,1.76133-3.14883,1.4558-.25494,2.91165-.5099,4.36745-.76484-.81905-1.61881-1.63813-3.23764-2.45718-4.85648l3.42455-4.02278c-.64477,1.43906-1.28954,2.87809-1.9343,4.31715.84833,1.4923,1.69668,2.98461,2.54501,4.47689,1.52321-.19008,3.04639-.38012,4.56958-.57018-2.95645.92026-5.91292,1.84052-8.86939,2.76078-.12592.26192-.25184.52381-.37778.78573l16.68335,2.01752c2.24535-.06798,4.57397-.1355,6.92175-.20059,1.76182-.04874,3.23409-.08836,3.98269-.10737,3.55132-.09018,7.12896-.16736,10.63755-.22964.43707-.43243.88897-.8803,1.12264-1.11481-.05239-.69332-.31769-2.70896-1.1729-8.01884l-.01931-.11991ZM16.90697,20.4355c0,1.29745-.04943,2.47256-.08547,3.33066-.01407.3348-.28994.59675-.62192.59675-.00882,0-.01772-.00015-.02661-.00053-.3437-.01445-.61067-.30484-.59622-.64854.03566-.84707.0844-2.00712.0844-3.27834,0-.18987-.00106-.38316-.00327-.58003-.00395-.344.27169-.6261.61569-.62998.00243-.00008.00487-.00008.0073-.00008.34073,0,.61881.2742.62268.61576.00236.20173.00342.39974.00342.59432Zm-1.39281-3.76956c-.09809-1.24118-.24485-2.48366-.43677-3.69747-.05368-.33982.17824-.6588.51805-.71256.33951-.05308.65888.17824.71256.51805.19686,1.24567.3475,2.52054.44779,3.78925l.00981.12767c.0257.34301-.23154.642-.57463.6677-.01582.00122-.03156.00175-.04722.00175-.32286,0-.59599-.2491-.62048-.57638l-.00912-.11801Zm2.31006,14.25594c-.11763.10136-.26233.15101-.40628.15101-.17504,0-.34902-.0733-.4722-.21633-.06661-.07726-.12828-.15231-.18333-.2231-.78373-1.00706-1.15328-2.12841-1.23548-3.74918-.01749-.34354.2469-.63622.59052-.65363.34187-.02061.63622.2469.65363.59052.0692,1.36383.3516,2.24672.97459,3.04726.04243.05452.09079.11337.14387.17497.22454.26066.19534.65394-.06532.87848Zm6.12897,1.49105c-.82936.50444-1.68959.76024-2.55673.76024-.03399,0-.06813-.00038-.10235-.00114-.5344-.01201-1.07413-.11991-1.60359-.32058-.32164-.12197-.48361-.48155-.36164-.80328s.48201-.48338.80328-.36164c.39677.15041.79734.23116,1.19047.23998.02502.00061.04943.00084.07383.00084.64443,0,1.26901-.18934,1.90934-.57881.29419-.17884.6772-.08539.85589.2085.17877.29389.08539.67713-.2085.85589Zm4.76635-5.43451c-.73203,1.09146-1.51454,2.23828-2.32451,3.20854-.12326.14759-.30028.22371-.47851.22371-.14082,0-.28241-.04745-.3989-.1447-.26408-.22051-.29944-.61333-.079-.87741.77142-.92395,1.53264-2.04005,2.24619-3.10406.19177-.28568.57881-.36172.86433-.1704.28568.19169.36202.57866.1704.86433Zm4.2029-5.37922c-.7537.64709-1.53378,1.54374-2.45507,2.82165-.12174.16888-.31237.25876-.50581.25876-.12615,0-.25351-.03825-.36369-.11771-.27914-.20112-.34225-.59044-.14105-.86951.98037-1.35996,1.82372-2.32542,2.65399-3.03837.26112-.22409.65432-.1942.8784.06676.22416.26104.1942.65432-.06676.8784Zm6.51471-.58421c-.12029.17839-.31685.27473-.51699.27473-.11984,0-.24089-.03452-.34773-.10653-.14379-.09695-.29419-.18797-.4468-.27047-.43251-.2339-1.08584-.58725-2.00393-.62169-.25427-.0092-.51707.00722-.77012.05079-.3386.05733-.66108-.16934-.7194-.50847-.05825-.33906.16941-.66116.50847-.7194.337-.05787.68009-.08007,1.0266-.0679,1.20955.04532,2.0821.51722,2.55088.77073.18812.10166.37343.2139.55083.33351.28522.1923.36058.57949.1682.86472Zm2.29737,5.70095c-.29191-1.35243-.71948-2.51453-1.27076-3.45407-.17413-.2967-.07475-.67842.22196-.85247.29686-.17436.67842-.07475.85247.22196.61842,1.0539,1.0942,2.33972,1.41417,3.82172.07254.33632-.1412.66777-.47745.74039-.04433.0095-.08851.01414-.13208.01414-.28705,0-.54528-.19968-.60831-.49167Zm1.65294,6.88426c-.02015.33047-.2945.58504-.62116.58504-.01277,0-.02555-.00038-.03848-.00114-.34339-.02091-.60481-.31625-.5839-.65964.03916-.64268.05901-1.28947.05901-1.92234,0-.64626-.02083-1.28217-.0619-1.89025-.02319-.34324.23625-.64025.57949-.66344.34423-.02372.64025.23633.66344.57949.04296.63584.06479,1.30004.06479,1.9742,0,.65804-.02061,1.3303-.06129,1.99808Z" fill="#f0e1ba"/><path d="m43.72915,40.93941l2.96396-2.96392c.30408-.30408.30408-.79712,0-1.1012-.304-.30393-.79689-.304-1.1012,0l-2.96396,2.96392-2.96396-2.96392c-.30416-.304-.79704-.304-1.1012,0-.30408.30408-.30408.79712,0,1.1012l2.96396,2.96392-2.96396,2.96392c-.30408.30408-.30408.79712,0,1.1012.15208.152.3513.22804.5506.22804.19922,0,.39852-.07604.5506-.22804l2.96396-2.96392,2.96396,2.96392c.15208.152.3513.22804.5506.22804s.39852-.07604.5506-.22804c.30408-.30408.30408-.79712,0-1.1012l-2.96396-2.96392Z" fill="#ee7752"/></svg>