<?xml version="1.0" encoding="UTF-8"?><svg id="a" xmlns="http://www.w3.org/2000/svg" viewBox="0 0 40 60"><path d="m20.02441,58.49512C14.53223,52.17578.34277,34.33301,1.02344,19.48926c.19336-4.21924,1.5542-7.16992,2.13037-8.24268C5.69336,6.52002,11.62988,1,20.00195,1c8.3457.00586,14.26855,5.48438,16.80957,10.17432.76074,1.40625,2.05664,4.42432,2.17871,8.83252.41992,15.14355-13.54199,32.38379-18.96582,38.48828Z" fill="#c2510c"/><path d="m20.01546,2c7.89277.00606,13.50675,5.2022,15.91611,9.65015.71918,1.32794,1.9431,4.18299,2.05956,8.38434.39201,14.13702-12.17492,30.28012-17.95924,36.9365-2.54045-2.98494-6.26783-7.68375-9.70984-13.23362C4.59012,34.4952,1.72012,26.12605,2.02232,19.53477c.18421-4.01543,1.46878-6.80256,2.01256-7.81458C6.444,7.23621,12.07122,2,20.00358,2.00001h.01188m-.00015-2.00001h-.00001s-.01355.00001-.01355.00001c-8.51914-.00001-14.87273,5.45796-17.72868,10.77361C1.90434,11.45984.24402,14.65625.02442,19.44313c-.77223,16.84271,17.03655,37.23396,19.9909,40.55687,3.21729-3.53395,20.4508-22.86366,19.97505-40.02095-.14179-5.11493-1.81159-8.37925-2.30016-9.28136C34.80663,5.37428,28.46087.0058,20.0153,0h0Z" fill="#7c3612"/><path d="m25.92217,15.6393l-.21935,2.92543h-2.33966l-.21935-2.92543h-1.75472l-.21935,2.92543h-2.33966l-.21935-2.92543h-1.75472l-.21935,2.92543h-2.33957l-.21935-2.92543h-1.97406v15.3607h5.0885v-5.61678c0-1.55106,1.25696-2.8084,2.80755-2.8084s2.80755,1.25734,2.80755,2.8084v5.61678h5.08886v-15.3607h-1.97406.00005Z" fill="#fff9ed"/><path d="m10.58955,30.99998h-1.56827c-.56405,0-1.02128-.45738-1.02128-1.02159v-11.41368c0-.56421.45724-1.02159,1.02128-1.02159h1.56827v13.45686Z" fill="#fff9ed"/><path d="m30.97873,30.99998h-1.56826v-13.45684h1.56826c.56405,0,1.02127.45738,1.02127,1.02159v11.41368c0,.56421-.45725,1.02159-1.02128,1.02159h0v-.00002Z" fill="#fff9ed"/><path d="m27.23777,14.21588c-1.45227-2.0083-3.69746-3.35284-6.19629-3.64813-.02953-.27709-.21802-.50359-.47621-.58837.07971-.11389.13697-.24493.13697-.39453,0-.22644-.11426-.41863-.28064-.547.0882-.10009.1463-.22791.1463-.37177,0-.25348-.16906-.46057-.39825-.5335.00049-.00555.00599-.00891.00599-.0146v-.94243c0-.09705-.0788-.17554-.17548-.17554-.09661,0-.17548.07849-.17548.17554v.94243c0,.00574.00549.00903.00611.01466-.22913.073-.39801.28009-.39801.53344,0,.14386.05792.27166.14618.37177-.16638.12836-.28051.32056-.28051.547,0,.14959.05719.28063.13691.39453-.25818.08478-.44659.31128-.47615.58837-2.49902.29523-4.74432,1.63971-6.19659,3.64813,0,0,14.47519,0,14.47518,0Z" fill="#fff9ed"/></svg>