<?xml version="1.0" encoding="UTF-8"?><svg id="a" xmlns="http://www.w3.org/2000/svg" viewBox="0 0 24 24"><path d="m17.92216,8.6393l-.21935,2.92543h-2.33966l-.21935-2.92543h-1.75472l-.21935,2.92543h-2.33966l-.21935-2.92543h-1.75472l-.21935,2.92543h-2.33957l-.21935-2.92543h-1.97406v15.3607h5.0885v-5.61678c0-1.55106,1.25696-2.8084,2.80755-2.8084s2.80755,1.25734,2.80755,2.8084v5.61678h5.08886v-15.3607h-1.97406.00005Z" fill="#967b37"/><path d="m2.58954,23.99998h-1.56827c-.56405,0-1.02128-.45738-1.02128-1.02159v-11.41368c0-.56421.45724-1.02159,1.02128-1.02159h1.56827v13.45686Z" fill="#967b37"/><path d="m22.97873,23.99998h-1.56826v-13.45684h1.56826c.56405,0,1.02127.45738,1.02127,1.02159v11.41368c0,.56421-.45725,1.02159-1.02128,1.02159h0v-.00002Z" fill="#967b37"/><path d="m19.23777,7.21588c-1.45227-2.0083-3.69746-3.35284-6.19629-3.64813-.02953-.27709-.21802-.50359-.47621-.58837.07971-.11389.13697-.24493.13697-.39453,0-.22644-.11426-.41863-.28064-.547.0882-.10009.1463-.22791.1463-.37177,0-.25348-.16906-.46057-.39825-.5335.00049-.00555.00599-.00891.00599-.0146V.17554c0-.09705-.0788-.17554-.17548-.17554-.09661,0-.17548.07849-.17548.17554v.94243c0,.00574.00549.00903.00611.01466-.22913.073-.39801.28009-.39801.53344,0,.14386.05792.27166.14618.37177-.16638.12836-.28051.32056-.28051.547,0,.14959.05719.28063.13691.39453-.25818.08478-.44659.31128-.47615.58837-2.49902.29523-4.74432,1.63971-6.19659,3.64813,0,0,14.47519,0,14.47518,0Z" fill="#967b37"/></svg>