<?xml version="1.0" encoding="UTF-8"?><svg id="a" xmlns="http://www.w3.org/2000/svg" viewBox="0 0 24 24"><path d="m23.16769,1.49305l-.55225-.68646-.07074.05688C21.88296.33161,21.05356,0,20.13846,0H3.86154C2.64975,0,1.58169.56959.87375,1.44282l-.44971.31885.11517.16241C.20517,2.49549.00003,3.1518.00003,3.86152v16.27692C.00003,22.27112,1.72885,24.00001,3.86154,24.00001h10.77527l.49817.01947.00073-.01947h5.00275c2.13269,0,3.86157-1.72888,3.86157-3.86157V3.86152c0-.89746-.31873-1.71277-.83234-2.36847Zm-.66766,18.64539c0,1.30219-1.05939,2.36157-2.36157,2.36157h-4.94476l.00574-.1485-.99902-.03906-.00732.18756H3.86154c-1.30219,0-2.36151-1.05939-2.36151-2.36157v-1.06708l.70233-.56458-.62695-.7793-.07538.06061V3.86152c0-.35529.08453-.68903.22565-.99158l.47229-.33484-.13324-.18787c.43353-.51355,1.07367-.84723,1.79681-.84723h16.27692c.43811,0,.84363.12787,1.19568.33661l-.27728.2229.62695.7793.39508-.31763c.26428.38129.42114.84229.42114,1.34033v16.27692Z" fill="#c2510c"/><rect x="9.46078" y="10.723" width="1.99976" height="1.00019" transform="translate(-4.72481 9.03572) rotate(-38.81707)" fill="#c2510c"/><rect x="4.78469" y="14.48325" width="2.00037" height="1.00019" transform="translate(-8.11452 6.93522) rotate(-38.81707)" fill="#c2510c"/><rect x="18.81155" y="3.20298" width="2.00037" height="1.00019" transform="translate(2.05418 13.23653) rotate(-38.81707)" fill="#c2510c"/><rect x="2.44754" y="16.36362" width="1.99938" height="1.00019" transform="translate(-9.80947 5.88518) rotate(-38.81707)" fill="#c2510c"/><rect x="11.79867" y="8.84311" width="1.99976" height="1.00019" transform="translate(-3.03011 10.08603) rotate(-38.81707)" fill="#c2510c"/><polygon points="15.60177 6.44721 14.04367 7.70014 14.67062 8.47944 14.74197 8.42206 14.70675 9.32221 15.70627 9.36127 15.77548 7.59095 16.22873 7.22651 15.60177 6.44721" fill="#c2510c"/><rect x="16.47366" y="5.08286" width="2.00037" height="1.00019" transform="translate(.35948 12.18622) rotate(-38.81707)" fill="#c2510c"/><rect x="13.8952" y="16.83575" width="1.99957" height="1.00027" transform="translate(-3.00935 31.54251) rotate(-87.76193)" fill="#c2510c"/><rect x="14.1291" y="10.84063" width="1.99954" height="1.00027" transform="translate(3.20595 26.01522) rotate(-87.76193)" fill="#c2510c"/><rect x="13.77826" y="19.83404" width="1.99957" height=".99979" transform="translate(-6.11775 34.30623) rotate(-87.76084)" fill="#c2510c"/><rect x="14.01155" y="13.83831" width="2.00052" height="1.00003" transform="translate(.09818 28.77874) rotate(-87.76193)" fill="#c2510c"/><rect x="4.1828" y="5.90355" width=".99958" height="1.99944" transform="translate(-3.12999 3.98002) rotate(-35.33596)" fill="#c2510c"/><rect x="5.91815" y="8.34993" width=".99958" height="2.00023" transform="translate(-4.22544 5.43445) rotate(-35.33596)" fill="#c2510c"/><polygon points="9.13937 12.32416 7.98263 10.69233 7.1672 11.27045 8.05197 12.51856 7.03 13.34077 7.65695 14.12006 9.21554 12.86616 8.91018 12.48664 9.13937 12.32416" fill="#c2510c"/><rect x="2.44744" y="3.45628" width=".99958" height="1.99944" transform="translate(-2.03465 2.52649) rotate(-35.34737)" fill="#c2510c"/></svg>