<?xml version="1.0" encoding="UTF-8"?><svg id="a" xmlns="http://www.w3.org/2000/svg" viewBox="0 0 40 60"><path d="m20.02441,58.49512C14.53223,52.17773.34277,34.33691,1.02344,19.48926c.19336-4.22266,1.55469-7.1709,2.13086-8.24219C5.69336,6.52002,11.62988,1,20.00195,1c8.3457.00586,14.26855,5.48438,16.80957,10.17432.76074,1.40625,2.05664,4.42432,2.17871,8.83252.41992,15.14355-13.54199,32.38379-18.96582,38.48828Z" fill="#c2510c"/><path d="m20.01546,2c7.89277.00606,13.50676,5.2022,15.91611,9.65015.71919,1.32794,1.9431,4.18299,2.05956,8.38434.39201,14.13702-12.1749,30.28011-17.95922,36.9365-2.54047-2.98494-6.26761-7.68338-9.70983-13.23361C4.59012,34.49519,1.72012,26.12605,2.02232,19.53477c.18421-4.01543,1.46878-6.80256,2.01257-7.81458C6.444,7.23621,12.07121,2,20.00358,2.00001h.01188m-.00015-2.00001h-.00002s-.01355.00001-.01355.00001c-8.51915-.00001-14.87273,5.45796-17.72867,10.77361C1.90434,11.45984.24401,14.65625.02442,19.44313c-.77223,16.84271,17.03656,37.23396,19.9909,40.55687,3.21729-3.53395,20.4508-22.86366,19.97504-40.02095-.14178-5.11493-1.81158-8.37925-2.30016-9.28136C34.80663,5.37428,28.46087.0058,20.0153,0h0Z" fill="#7c3612"/><rect x="21.92687" y="12.94488" width="5.12825" height="5.12825" rx=".51283" ry=".51283" transform="translate(-3.7932 21.86058) rotate(-45.00071)" fill="#fff9ed"/><path d="m23.60596,11.92239c-4.35876-3.48779-8.92373-5.10732-11.72216-4.15173,2.58413,1.50986,5.72878,3.90149,8.98011,6.89375l2.74205-2.74201h0Z" fill="#fff9ed"/><path d="m28.07756,16.39401l-2.74198,2.74208c2.99226,3.25131,5.38394,6.39593,6.89377,8.98011.95559-2.79843-.66395-7.36345-4.15179-11.72219Z" fill="#fff9ed"/><path d="m28.44924,13.96817c.215-.22233.21209-.57599-.00664-.79469l-1.61608-1.61608c-.21873-.2187-.57236-.22164-.79469-.00664l-.51605.4991,2.43429,2.43432.49917-.51601Z" fill="#fff9ed"/><path d="m20.95169,16.45367l-12.14427,11.56805c-.40303.38391-.41082,1.0244-.01724,1.418l1.77003,1.77007c.39359.3936,1.03409.38582,1.41801-.01722l11.5681-12.1443-2.59464-2.5946h.00001Z" fill="#fff9ed"/></svg>