<?xml version="1.0" encoding="UTF-8"?><svg id="a" xmlns="http://www.w3.org/2000/svg" viewBox="0 0 24 24"><rect x="13.42687" y="5.44488" width="5.12825" height="5.12825" rx=".51283" ry=".51283" transform="translate(-.9795 13.65334) rotate(-45.00071)" fill="#623713"/><path d="m15.10596,4.42239C10.7472.9346,6.18223-.68493,3.3838.27066c2.58413,1.50986,5.72878,3.90149,8.98011,6.89375l2.74205-2.74201h0Z" fill="#623713"/><path d="m19.57756,8.89401l-2.74198,2.74208c2.99226,3.25131,5.38394,6.39593,6.89377,8.98011.95559-2.79843-.66395-7.36345-4.15179-11.72219Z" fill="#623713"/><path d="m19.94924,6.46817c.215-.22233.21209-.57599-.00664-.79469l-1.61608-1.61608c-.21873-.2187-.57236-.22164-.79469-.00664l-.51605.4991,2.43429,2.43432.49917-.51601Z" fill="#623713"/><path d="m12.45169,8.95367L.30742,20.52172c-.40303.38391-.41082,1.0244-.01724,1.418l1.77003,1.77007c.39359.3936,1.03409.38582,1.41801-.01722l11.5681-12.1443-2.59464-2.5946h.00001Z" fill="#623713"/></svg>