<?xml version="1.0" encoding="UTF-8"?><svg id="a" xmlns="http://www.w3.org/2000/svg" viewBox="0 0 16 16"><path d="m16,1.10687l-.19935-.5552c-.03716-.11377-.09604-.21094-.17504-.2889-.11756-.116-.27767-.18542-.4759-.20632-.44751-.04715-6.46597.09209-6.84062.0924-1.09334-.09127-1.8463.0375-2.29534.39328L3.93865.07302l-.0162-.00298c-.0418-.00598-1.03963-.14522-2.39746-.01377-.07485.00726-.30261.02932-.47953.20835-.04797.04855-.54065.76279-.70579,1.09642-.12442.25136-.20885.45159-.20885.51029C.13082,4.74771,0,5.65129,0,5.6513c.00094.00568.03625,1.64248.10687,4.91607.02271,1.05299.04493,2.63772.02395,4.60128,0,.19928.07982.37969.20885.51029.15812.16003.37874.1987.5042.21137,2.42362.24481,6.10732.00348,6.11644.00288h.00001c3.52642,0,3.88657-.0579,4.25749-.04459.14048.00503.24286.01698.26943.01946.3064.02858.99519.04526,2.49523.02225.24945-.00383.37235-.06924.55003-.13851.47627-.1857,1.01513-.58207,1.18052-1.02128.08269-.08409.12057-.12315.12125-.21053.00162-.13616-.03759-.5768-.39327-2.81439l.25975-1.14687-.13408-.9248.43117-8.48451s.00215-.04256.00215-.04256Z" fill="#0b132b"/><path d="m15.16836,10.49841l-.1272-.89362.42841-8.32306-.17334-.47699c-.01599-.04913-.03986-.08942-.07098-.11969-.0495-.04822-.12408-.0769-.22815-.08771-.07568-.00793-.21582-.01257-.40448-.01471-.06793.27557-.19537.48944-.36438.57068l-1.9118.81976c-.19812.40417-.39624.80835-.5943,1.21252.17682-.56946.28052-1.70831.28052-1.70831l.81647-.32343s.32349-.4126.40497-.56915c-.94714.01007-4.63757.10571-5.00647.10571l-.01721-.00073c-1.0293-.08575-1.72369.03186-2.06403.34937l-.07977.0744-2.2655-.50568c-.09302-.01221-1.03918-.12927-2.28326-.01031-.0459.00439-.15344.01471-.22455.08575-.06128.06122-.08032.15375-.08551.22064-.15302,1.98407.02612,2.93396.03754,2.99127.14313.57684.09686,1.74115.00494,4.05432-.00146.06348-.04187,1.86877-.04187,6.45911,0,.0495.01251.09705.03577.13922.19495-.34827.38983-.69647.58478-1.04474.4834-.08459.7168-.16919,1.20013-.25378-.27191-.53711-.54388-1.07422-.81586-1.61133l1.38708-1.33472c-.21411.47742-.42816.9549-.64227,1.43237.28168.49512.56335.9903.84503,1.48541.5058-.06305,1.51727-.18921,1.51727-.18921l-2.44495,1.16602s-.08362.17383-.12543.26068l5.03943.41943c.74554-.02258,3.37207-.09589,3.62061-.10217,1.1792-.02991,2.36707-.05554,3.53204-.07623.14514-.14343.29517-.29205.37274-.36987-.0174-.23004-.39581-2.70038-.39581-2.70038l.2594-1.13086ZM3.58394,3.98438c-.06152.03662-.12793.0542-.19434.0542-.12695,0-.25098-.06445-.32129-.18115-.2666-.44238-.44141-.96777-.51758-1.56055-.02637-.20557.11914-.39355.32422-.41992.21582-.02246.39355.11963.41992.32422.0625.48877.20312.91553.41602,1.26855.10645.17725.0498.40771-.12695.51465Zm2.83789,1.25879c-.0459.16748-.19727.27734-.3623.27734-.03223,0-.06543-.00391-.09766-.01318-.6582-.17773-1.125-.32471-1.4707-.46338-.19238-.07715-.28516-.29541-.20801-.48779.07715-.19287.29688-.28271.4873-.2085.31738.12744.75781.26611,1.38672.43604.2002.05371.31836.25977.26465.45947Zm3.0498.78125c-.0498.16113-.19824.26416-.3584.26416-.03711,0-.07422-.00537-.11133-.0166-.2627-.08154-.59863-.16113-1.07129-.27344l-.3584-.08545c-.20215-.04834-.32617-.25049-.27734-.45215.04785-.20068.24609-.32373.45117-.27734l.3584.08545c.49414.11719.84473.20117,1.12012.28613.19727.06152.30859.27148.24707.46924Zm1.66699,2.55127c-.03125.00781-.0625.01172-.09277.01172-.16797,0-.32031-.11279-.36328-.28223-.12207-.47754-.30957-.88916-.55859-1.22363-.12402-.1665-.08887-.40137.07715-.5249.16699-.12256.40137-.08936.52441.07666.30762.41357.53809.91357.68359,1.48633.05078.20068-.07031.40527-.27051.45605Z" fill="#f0e1ba"/><path d="m13.15621,12.36963l-1.1582-1.1582,1.15723-1.15869c.08008-.0791.12402-.18457.12402-.29688,0-.11182-.04395-.21729-.12305-.29639s-.18457-.12305-.29688-.12305h-.00098c-.1123,0-.21777.04395-.2959.12305l-1.15918,1.1582-1.1582-1.1582c-.08008-.07959-.18555-.12354-.29785-.12354h-.00098c-.11133.00049-.21582.04395-.29395.12305-.08008.07959-.12305.18506-.12305.29688,0,.1123.04297.21777.12207.29688l1.15918,1.15869-1.15918,1.1582c-.0791.0791-.12207.18408-.12207.29639-.00098.1123.04297.21826.12207.29736.1582.15723.43652.15771.59277-.00049l1.15918-1.1582,1.15918,1.15869c.16211.15918.43848.15869.59277-.00049.08008-.0791.12402-.18457.12402-.29688,0-.11182-.04395-.21729-.12305-.29639Z" fill="#de481a"/></svg>